<?xml version="1.0" encoding="UTF-8"?>
<svg id="Layer_2" data-name="Layer 2" xmlns="http://www.w3.org/2000/svg" viewBox="0 0 856.8 459.93">
  <defs>
    <style>
      .cls-1 {
        fill: #fff;
      }
    </style>
  </defs>
  <g id="Layer_1-2" data-name="Layer 1">
    <path class="cls-1" d="m856.34,341.48c-.48-3.31-2.15-5.96-4.47-8.27-2.79-2.76-6.17-4.59-9.82-5.8-4.38-1.45-8.9-2.49-13.33-3.81-2.82-.84-5.63-1.76-8.36-2.84-1.98-.78-2.94-2.42-2.66-4.6.27-2.07,1.64-3.35,3.51-3.82,1.75-.44,3.63-.67,5.44-.57,3.44.19,6.82.94,9.96,2.38,2.89,1.33,5.68,2.84,8.74,4.39,3.12-4.4,6.29-8.87,9.55-13.47-.61-.54-1.11-1.05-1.68-1.45-3.28-2.32-6.8-4.19-10.61-5.46-7.88-2.6-15.95-3.29-24.13-2.02-4.64.72-8.96,2.4-12.67,5.34-5.92,4.69-8.23,10.99-7.95,18.38.17,4.66,1.76,8.72,5.13,12.03,2.8,2.75,6.16,4.61,9.84,5.75,5.18,1.6,10.46,2.86,15.66,4.39,2.13.63,4.23,1.45,6.23,2.41,1.69.82,2.59,2.28,2.41,4.3-.18,2.02-1.39,3.22-3.09,3.9-1.16.46-2.46.7-3.72.79-8.41.55-15.89-2.07-22.72-6.82-.7-.49-1.41-.96-2.29-1.56-3.65,4.35-7.17,8.55-10.77,12.85,2.14,2.2,4.49,3.7,6.88,5.11,6.74,3.96,14.12,5.94,21.84,6.56,6.32.51,12.62.17,18.67-2.09,6.63-2.48,11.54-6.73,13.89-13.58.38-1.12.66-2.27.98-3.41v-7.68c-.16-.44-.4-.88-.46-1.33Z"/>
    <path class="cls-1" d="m49.66,348.18c-7.48,6.45-21.05,5.32-26.4-5.32-3.04-6.04-3.33-12.23-.89-18.54,3.25-8.4,11.78-12.54,19.64-10.81,4.2.92,7.4,3.24,10.32,6.15.55.55,1.06,1.14,1.73,1.86,4.93-3.82,9.7-7.52,14.56-11.28-.35-.58-.54-1.02-.83-1.37-3.78-4.68-8.29-8.45-13.9-10.72-7.21-2.91-14.69-3.41-22.36-2.22-17.07,2.65-28.27,16.2-30.28,29.89-.13.87-.2,1.79-1.26,2.12v9.6c1.17.39,1.08,1.44,1.28,2.36.33,1.56.57,3.15,1.06,4.66,5.02,15.48,18.58,25.13,34.44,25.35,12.92.18,23.59-4.17,31.45-14.67.31-.42.55-.89.87-1.42-4.96-3.45-9.61-7.05-14.54-10.2-1.76,1.65-3.27,3.18-4.9,4.58Z"/>
    <path class="cls-1" d="m640.14,434.14c-2.61-1.36-5.41-2.38-8.06-3.66-1.86-.9-3.8-1.77-5.39-3.05-2.95-2.37-2.19-6.73,1.29-8.22,1.73-.74,3.53-.94,5.4-.53,2.46.54,4.68,1.59,6.73,3.03.58.41,1.17.78,1.96,1.3,1.62-2.19,3.16-4.27,4.66-6.3-5.35-5.7-15.31-7.31-21.83-4.78-5.2,2.02-8.1,5.89-8.55,11.42-.42,5.24,1.61,9.44,6.28,12.01,2.79,1.54,5.78,2.69,8.67,4.04,1.66.78,3.36,1.5,4.92,2.46,1.37.85,2.45,2.03,2.58,3.83.21,2.89-1.48,5.2-4.5,5.89-4.09.93-7.75-.24-11.13-2.49-1.25-.83-2.43-1.77-3.81-2.79-1.71,2.11-3.34,4.12-5.07,6.27,3.59,3.36,7.48,5.55,12.05,6.51,1,.21,1.97.57,2.95.85h4.8c.9-.3,1.78-.65,2.69-.88,9.42-2.31,12.37-11.57,9.59-18.51-1.19-2.98-3.49-4.98-6.23-6.4Z"/>
    <path class="cls-1" d="m460.07,125.8c.11-1.75-.04-3.52.04-5.28.11-2.47-.91-4.35-2.85-5.74-1.03-.74-2.13-1.42-3.27-1.99-5.16-2.57-10.74-3.66-16.39-4.2-8.71-.84-17.41-.64-25.99,1.39-3.98.94-7.85,2.18-11.21,4.64-2,1.46-3.09,3.31-3.02,5.9.11,4.16.02,8.32.04,12.48,0,.53.09,1.05.13,1.43,5.23-1.26,10.29-2.66,15.44-3.69,8.35-1.67,13.78-1.9,15.73-1-.03.15-.02.35-.11.45-.46.55-.94,1.09-1.44,1.6-10.32,10.52-15.33,23.2-15.17,37.89.08,7.8,1.65,15.38,3.98,22.82,3.52,11.19,8.67,21.63,14.57,31.72,10.92,18.69,23.97,35.88,37.7,52.56,9.6,11.66,19.44,23.14,29.19,34.68.25.3.65.48,1.22.9v-36.56c0-4-.03-8,0-12,.04-3.96-.17-7.92.16-12.1h36.74c0-1.02.06-1.65,0-2.26-1.32-10.88-3.26-21.63-6.25-32.19-5.01-17.66-12.33-34.24-22.78-49.38-6.81-9.86-14.74-18.7-24.13-26.19-6.22-4.95-12.85-9.23-20.15-12.41-1.69-.74-2.29-1.71-2.18-3.47Z"/>
    <path class="cls-1" d="m768.07,306.36c-2.96,9.86-5.9,19.73-8.85,29.59-.2.69-.44,1.36-1.48,1.43-4.51-13.57-9-27.1-13.53-40.75-5.39,0-10.57.01-15.75,0-1.14,0-1.47.76-1.76,1.63-1.27,3.87-2.54,7.73-3.81,11.6-2.88,8.71-5.77,17.42-8.67,26.13-.18.53-.58.99-.87,1.48-.2-.02-.39-.04-.59-.06-4.09-13.53-8.17-27.06-12.23-40.48-5.9-.43-18.56-.25-20.56.35,7.93,23.89,15.86,47.78,23.79,71.67h17.2c1.57-4.53,3.12-9.05,4.69-13.56,1.6-4.6,3.21-9.19,4.84-13.78,1.58-4.45,2.91-9,4.76-13.35.21,0,.42,0,.63,0,4.74,13.52,9.48,27.04,14.29,40.75,5.78.04,11.48.05,17.16-.01,8.01-24.15,15.92-47.98,23.9-72.06h-20.24c-.98,3.19-1.96,6.31-2.9,9.44Z"/>
    <path class="cls-1" d="m573.89,299.71c0,10.64.02,21.28,0,31.92,0,.81.32,1.74-.59,2.55-.44-.39-.9-.69-1.23-1.11-1.83-2.32-3.63-4.68-5.44-7.01-7.17-9.22-14.35-18.42-21.48-27.67-.92-1.19-1.88-1.71-3.42-1.67-4.56.11-9.12.03-13.68.04-.78,0-1.56.07-2.29.11-.53,2.85-.42,69.57.11,71.38h18.89c0-6.46.02-12.75.03-19.04,0-6.37,0-12.73,0-19.1.27-.11.53-.22.8-.33.49.56,1.02,1.1,1.47,1.69,9.19,11.79,18.39,23.59,27.55,35.41.8,1.03,1.62,1.59,2.99,1.57,4.64-.07,9.28-.02,13.92-.03.46,0,.91-.1,1.47-.17v-71.33h-19.11c0,1.04,0,1.91,0,2.77Z"/>
    <path class="cls-1" d="m660.23,351.96h-9.36c-3.2,0-6.4.03-9.6,0-3.16-.04-6.34.17-9.71-.17,0-3.63,0-6.98,0-10.32,0-.98.52-1.45,1.5-1.45.64,0,1.28-.02,1.92-.02,9.44,0,18.88,0,28.32,0,.85,0,1.7-.08,2.65-.12v-15.15c-1.27,0-2.22,0-3.17,0-9.2,0-18.4,0-27.6,0-.64,0-1.28-.02-1.92,0-1.23.04-1.72-.59-1.72-1.77.01-2.08-.01-4.16,0-6.24q0-3.35,3.26-3.35c10.64,0,21.28,0,31.92-.01.91,0,1.83-.13,2.67-.19.5-3.45.35-14.62-.22-16.39-.65,0-1.36,0-2.07,0-18.15.05-36.3.09-54.46.15-.06,0-.13.08-.19.13-.06.05-.11.12-.16.18-.44,4.08-.24,69.21.21,70.92,2.38.48,55.62.4,57.43-.09.47-2.69.36-14.22-.21-16.09h-9.5Z"/>
    <path class="cls-1" d="m398.07,147.1c.26-.39.38-.88.56-1.32-1.58.74-2.87,1.67-4.07,2.71-7.11,6.16-12.37,13.76-16.89,21.92-5.49,9.91-9.36,20.46-12.14,31.42-1.83,7.21-3.03,14.56-3.62,21.97-.59,7.42-.49,14.87.01,22.3.12,1.8.48,3.59.74,5.44h39.96c-.07-.54-.05-.79-.14-.99-5.06-10.48-8.58-21.48-10.98-32.86-1.89-8.94-3.09-17.95-3.29-27.09-.15-6.97.16-13.9,1.38-20.78,1.44-8.1,3.81-15.83,8.48-22.71Z"/>
    <path class="cls-1" d="m388.65,112.73c0,.51.13,1.01.24,1.84,1-1.37,1.72-2.5,2.58-3.51,2.8-3.31,6.43-5.49,10.34-7.2,6.5-2.85,13.36-4.25,20.41-4.85,10.66-.91,21.06.2,31.12,3.91,4.38,1.61,8.51,3.73,11.77,7.16,1.29,1.35,2.33,2.93,3.65,4.63.06-.64.13-1.07.13-1.51,0-2.4-.04-4.8,0-7.2.06-3.1-.98-5.79-2.84-8.21-2.23-2.92-5-5.34-8.35-6.66-3.5-1.38-4.61-3.48-4.17-7.07.59-4.9-1.86-8.43-5.78-11.05-1.06-.71-2.18-1.37-3.35-1.84-1.41-.57-1.85-1.47-1.82-2.95.08-3.92,0-7.84.03-11.75.01-1.5-.3-2.9-1.26-4.03-2.35-2.78-5.5-3.87-9.36-4.36,0,1.04,0,1.81,0,2.58,0,4.64,0,9.28,0,13.91,0,.64-.01,1.28-.04,1.92-.04.85-.47,1.35-1.34,1.36-1.58.02-3.16,0-5.07,0-.18-6.66-.01-13.02-.12-19.73-2.83.2-5.1,1.07-7.21,2.41-2.25,1.43-3.42,3.45-3.37,6.2.07,3.84-.04,7.68.05,11.51.03,1.48-.44,2.29-1.82,2.94-1.72.81-3.38,1.83-4.87,3.01-2.83,2.25-4.45,5.18-4.26,8.94.05,1.12-.1,2.25.03,3.35.23,1.89-.54,2.92-2.29,3.63-3.21,1.31-6.07,3.23-8.53,5.68-2.95,2.93-4.76,6.37-4.54,10.68.1,2.07,0,4.16.03,6.24Z"/>
    <path class="cls-1" d="m332.03,313.7c.05-.79.12-1.34.12-1.89,0-4.87,0-9.74,0-14.89h-62.69v16.8c.95.04,1.8.11,2.66.11,4.88,0,9.76.01,14.63,0,4.34-.01,4.12-.25,4.12,4.23,0,15.75,0,31.51,0,47.26,0,.93.07,1.87.11,2.95h19.45c0-1.03,0-1.9,0-2.76,0-16.31,0-32.63,0-48.94,0-2.65.07-2.72,2.66-2.73,5.44-.02,10.88,0,16.31,0,.85,0,1.71-.08,2.61-.13Z"/>
    <path class="cls-1" d="m483.55,351.35c-9.6,0-19.19,0-28.79,0-3.16,0-3.17,0-3.17-3.2,0-16.08,0-32.15,0-48.23,0-.94,0-1.88,0-2.95-4.08-.43-17.58-.28-19.27.18v71.29h27.02c4.56,0,9.12.04,13.68-.01,4.43-.05,8.87.24,13.32-.18v-16.9c-1.06,0-1.93,0-2.8,0Z"/>
    <path class="cls-1" d="m342.35,251.45c0-1.04.01-1.9,0-2.76-.25-13.37,1.59-26.48,5.37-39.29,5.96-20.19,15.91-38.14,30.58-53.35,7.21-7.48,15.24-13.89,24.57-18.57,1.05-.53,2.12-1.03,3.17-1.55-.04-.17-.08-.33-.12-.5-.45.07-.91.08-1.33.22-6.84,2.3-13.37,5.28-19.55,8.99-21.78,13.07-37.61,31.49-48.65,54.18-4.94,10.16-8.85,20.72-11.11,31.8-1.31,6.41-2.24,12.9-3.31,19.36-.08.5.09,1.04.14,1.45h20.25Z"/>
    <path class="cls-1" d="m236.13,368.07c2.82.61,17.42.49,19.21-.15v-70.99h-19.21v71.14Z"/>
    <path class="cls-1" d="m452.85,411.57c0,1,0,1.85,0,2.7,0,7.75,0,15.51-.02,23.26,0,.89.34,1.92-.77,2.8-.46-.59-.91-1.11-1.29-1.67-1.99-3-3.95-6.01-5.93-9.01-3.65-5.54-7.3-11.07-10.97-16.6-.47-.71-.81-1.61-1.9-1.61-2.22,0-4.45,0-6.84,0v47.47h8.15c0-5.06-.04-10,.01-14.93.05-4.97-.22-9.95.18-14.91.18-.05.35-.1.53-.15.45.6.94,1.18,1.36,1.81,1.99,3,3.95,6.01,5.93,9.01,3.86,5.87,7.71,11.76,11.62,17.6.45.67,1.19,1.53,1.87,1.6,2.03.21,4.09.08,6.09.08.53-3.11.4-45.71-.12-47.46h-7.87Z"/>
    <path class="cls-1" d="m418.31,42.24c5.15-1.67,10.43-2.18,15.84-1.21,6.5,1.17,12.28,3.43,15.95,9.4.17-.05.33-.11.5-.16-.08-1.73-.07-3.47-.27-5.19-.38-3.16-1.85-5.86-4.37-7.72-1.81-1.34-2.62-3.02-3.31-5.01-1.33-3.86-3.75-7.16-7.58-8.49-3.34-1.16-3.95-3.11-3.57-6.06.05-.39,0-.8.01-1.2.07-2.18.66-2.66,2.83-2.19,1.13.25,2.24.63,3.81,1.08-.93-2.72-1.59-5.09-2.56-7.32-.48-1.12-1.41-2.12-2.34-2.94-1.74-1.52-3.63-2.88-5.47-4.28-.41-.31-.9-.5-1.72-.95,0,1.14,0,1.91,0,2.68,0,5.51-.08,11.03.05,16.54.05,2.17-.4,3.47-2.73,4.23-3.65,1.18-6.42,3.79-7.77,7.35-1.19,3.13-2.69,5.84-5.41,7.84-.37.27-.62.73-.9,1.11-2.33,3.21-2.6,6.79-1.96,10.6,2.52-4.34,6.49-6.65,10.98-8.11Z"/>
    <path class="cls-1" d="m343.06,451.22c-4.64,0-9.27,0-13.91,0-3.35,0-3.36-.01-3.36-3.29,0-11.19,0-22.38,0-33.58,0-.92-.07-1.84-.1-2.7-3.34-.42-6.49-.32-8.15.22v47.02h28.38v-7.67c-1.13,0-1.99,0-2.85,0Z"/>
    <path class="cls-1" d="m266.88,451.21c-2.15-.01-2.25-.16-2.29-2.36,0-.48,0-.96,0-1.44,0-11.03,0-22.07,0-33.1,0-.91-.11-1.83-.17-2.89-1.58,0-2.85-.02-4.12,0-1.32.02-2.65.08-3.98.12v47.35c5.27.53,26.67.29,28.31-.3v-7.24c-1.15-.05-2.01-.12-2.87-.12-4.96-.01-9.91.01-14.87-.02Z"/>
    <path class="cls-1" d="m210.28,458.99c2.94.06,5.61.19,8.28-.08v-47.3h-8.28v47.38Z"/>
    <path class="cls-1" d="m572.01,411.53v47.32h8.11c.55-4.35.32-45.6-.27-47.32h-7.83Z"/>
    <path class="cls-1" d="m379.34,411.64c-.51,3.83-.31,45.64.21,47.3h7.7c.53-4.26.31-45.67-.21-47.3-2.58,0-5.16,0-7.7,0Z"/>
    <path class="cls-1" d="m516.65,410.72c-8.9-.08-15.38,3.98-18.96,12.09-3.51,7.96-3.5,16.18-.3,24.24,2.54,6.39,7.15,10.67,14.06,12.17.43.09.8.47,1.19.71h7.2c.48-.26.93-.65,1.44-.76,6.13-1.34,10.52-4.99,13.19-10.52,4.16-8.62,4.22-17.52.38-26.2-3.42-7.72-9.69-11.67-18.2-11.74Zm11.97,27.49c-.35,2.87-1.06,5.64-2.62,8.15-4.45,7.16-14.02,7.44-18.84.54-2.15-3.08-3.3-7.21-3.28-12.62.09-2.58.54-5.9,2.1-8.96,2.07-4.07,5.29-6.68,9.96-6.81,4.67-.13,8.07,2.25,10.31,6.25,2.35,4.19,2.95,8.74,2.37,13.46Z"/>
    <path class="cls-1" d="m366.72,297.08c-16.91,4.8-27.6,19.89-26.82,37.31.41,9.18,3.67,17.18,9.99,23.77,7.7,8.04,17.33,11.74,28.47,12,3.4-.46,6.87-.61,10.17-1.45,15.88-4.02,26.5-16.61,28.25-31.25,1.36-11.38-1.45-21.58-9.35-29.87-11.28-11.83-25.32-14.89-40.72-10.52Zm25.86,48.7c-3.74,4.79-8.96,6.73-15.01,6.48-10.1-.42-17.63-9.25-17.66-21.11.4-6.56,3.42-13.05,10.96-16.57,9.1-4.25,20.01-.13,24.22,9.12,3.54,7.78,2.78,15.32-2.51,22.09Z"/>
    <path class="cls-1" d="m122.45,298.33c-.65-1.54-1.37-2.23-3.15-2.18-4.88.14-9.76.13-14.64,0-1.68-.04-2.4.63-3.01,2.05-9.61,22.82-19.26,45.61-28.89,68.42-.2.47-.22,1.01-.33,1.55.39.11.62.23.84.23,6,.02,12,.01,18,.04,1.05,0,1.55-.45,1.91-1.41,1.18-3.14,2.5-6.23,3.69-9.36.51-1.34,1.22-2.02,2.8-2,8.08.07,16.16.06,24.24.01,1.41,0,2.17.48,2.67,1.82,1.15,3.06,2.51,6.05,3.66,9.11.5,1.32,1.19,1.93,2.63,1.84,1.59-.1,3.2-.02,4.8-.02,4.63,0,9.25,0,14.34,0-.84-2-1.5-3.61-2.18-5.21-9.14-21.63-18.3-43.25-27.4-64.9Zm-18.47,41.74c.39-2.53,6.74-18.25,8.14-19.95,2.82,6.6,5.26,13.17,7.79,19.69-1.81.74-13.2.88-15.92.26Z"/>
    <path class="cls-1" d="m206.92,299.14c-4.07-1.53-8.33-2.3-12.67-2.33-10.24-.07-20.48-.04-30.72-.04-.45,0-.91.09-1.44.15v71.26c3.27.5,17.5.33,19.52-.31v-20.01c2.71,0,5.09-.04,7.47,0,4.82.1,9.58-.21,14.26-1.46,5.38-1.43,10.11-3.94,13.71-8.3,4.75-5.73,6.02-12.46,5.19-19.61-1.11-9.54-6.34-16.01-15.33-19.38Zm-12.29,33.13c-3.8.38-7.66.25-11.49.33-1.28.02-1.6-.8-1.59-1.9.01-2.64,0-5.28,0-7.91h0c0-2.56,0-5.12,0-7.68,0-1.04.16-2.01,1.5-1.97,3.98.12,8.01-.02,11.94.53,5.22.73,7.86,4.33,7.83,9.52-.03,5.76-4.36,8.69-8.2,9.08Z"/>
  </g>
</svg>