<?xml version="1.0" encoding="UTF-8"?>
<svg id="Layer_2" data-name="Layer 2" xmlns="http://www.w3.org/2000/svg" viewBox="0 0 213.66 312.35">
  <defs>
    <style>
      .cls-1 {
        fill: #fff;
      }
    </style>
  </defs>
  <g id="Layer_1-2" data-name="Layer 1">
    <path class="cls-1" d="m138.13,125.8c.11-1.75-.04-3.52.04-5.28.11-2.47-.91-4.35-2.85-5.74-1.03-.74-2.13-1.42-3.27-1.99-5.16-2.57-10.74-3.66-16.39-4.2-8.71-.84-17.41-.64-25.99,1.39-3.98.94-7.85,2.18-11.21,4.64-2,1.46-3.09,3.31-3.02,5.9.11,4.16.02,8.32.04,12.48,0,.53.09,1.05.13,1.43,5.23-1.26,10.29-2.66,15.44-3.69,8.35-1.67,13.78-1.9,15.73-1-.03.15-.02.35-.11.45-.46.55-.94,1.09-1.44,1.6-10.32,10.52-15.33,23.2-15.17,37.89.08,7.8,1.65,15.38,3.98,22.82,3.52,11.19,8.67,21.63,14.57,31.72,10.92,18.69,23.97,35.88,37.7,52.56,9.6,11.66,19.44,23.14,29.19,34.68.25.3.65.48,1.22.9v-36.56c0-4-.03-8,0-12,.04-3.96-.17-7.92.16-12.1h36.74c0-1.02.06-1.65,0-2.26-1.32-10.88-3.26-21.63-6.25-32.19-5.01-17.66-12.33-34.24-22.78-49.38-6.81-9.86-14.74-18.7-24.13-26.19-6.22-4.95-12.85-9.23-20.15-12.41-1.69-.74-2.29-1.71-2.18-3.47Z"/>
    <path class="cls-1" d="m76.14,147.1c.26-.39.38-.88.56-1.32-1.58.74-2.87,1.67-4.07,2.71-7.11,6.16-12.37,13.76-16.89,21.92-5.49,9.91-9.36,20.46-12.14,31.42-1.83,7.21-3.03,14.56-3.62,21.97-.59,7.42-.49,14.87.01,22.3.12,1.8.48,3.59.74,5.44h39.96c-.07-.54-.05-.79-.14-.99-5.06-10.48-8.58-21.48-10.98-32.86-1.89-8.94-3.09-17.95-3.29-27.09-.15-6.97.16-13.9,1.38-20.78,1.44-8.1,3.81-15.83,8.48-22.71Z"/>
    <path class="cls-1" d="m66.71,112.73c0,.51.13,1.01.24,1.84,1-1.37,1.72-2.5,2.58-3.51,2.8-3.31,6.43-5.49,10.34-7.2,6.5-2.85,13.36-4.25,20.41-4.85,10.66-.91,21.06.2,31.12,3.91,4.38,1.61,8.51,3.73,11.77,7.16,1.29,1.35,2.33,2.93,3.65,4.63.06-.64.13-1.07.13-1.51,0-2.4-.04-4.8,0-7.2.06-3.1-.98-5.79-2.84-8.21-2.23-2.92-5-5.34-8.35-6.66-3.5-1.38-4.61-3.48-4.17-7.07.59-4.9-1.86-8.43-5.78-11.05-1.06-.71-2.18-1.37-3.35-1.84-1.41-.57-1.85-1.47-1.82-2.95.08-3.92,0-7.84.03-11.75.01-1.5-.3-2.9-1.26-4.03-2.35-2.78-5.5-3.87-9.36-4.36,0,1.04,0,1.81,0,2.58,0,4.64,0,9.28,0,13.91,0,.64-.01,1.28-.04,1.92-.04.85-.47,1.35-1.34,1.36-1.58.02-3.16,0-5.07,0-.18-6.66-.01-13.02-.12-19.73-2.83.2-5.1,1.07-7.21,2.41-2.25,1.43-3.42,3.45-3.37,6.2.07,3.84-.04,7.68.05,11.51.03,1.48-.44,2.29-1.82,2.94-1.72.81-3.38,1.83-4.87,3.01-2.83,2.25-4.45,5.18-4.26,8.94.05,1.12-.1,2.25.03,3.35.23,1.89-.54,2.92-2.29,3.63-3.21,1.31-6.07,3.23-8.53,5.68-2.95,2.93-4.76,6.37-4.54,10.68.1,2.07,0,4.16.03,6.24Z"/>
    <path class="cls-1" d="m20.41,251.45c0-1.04.01-1.9,0-2.76-.25-13.37,1.59-26.48,5.37-39.29,5.96-20.19,15.91-38.14,30.58-53.35,7.21-7.48,15.24-13.89,24.57-18.57,1.05-.53,2.12-1.03,3.17-1.55-.04-.17-.08-.33-.12-.5-.45.07-.91.08-1.33.22-6.84,2.3-13.37,5.28-19.55,8.99-21.78,13.07-37.61,31.49-48.65,54.18-4.94,10.16-8.85,20.72-11.11,31.8-1.31,6.41-2.24,12.9-3.31,19.36-.08.5.09,1.04.14,1.45h20.25Z"/>
    <path class="cls-1" d="m96.37,42.24c5.15-1.67,10.43-2.18,15.84-1.21,6.5,1.17,12.28,3.43,15.95,9.4.17-.05.33-.11.5-.16-.08-1.73-.07-3.47-.27-5.19-.38-3.16-1.85-5.86-4.37-7.72-1.81-1.34-2.62-3.02-3.31-5.01-1.33-3.86-3.75-7.16-7.58-8.49-3.34-1.16-3.95-3.11-3.57-6.06.05-.39,0-.8.01-1.2.07-2.18.66-2.66,2.83-2.19,1.13.25,2.24.63,3.81,1.08-.93-2.72-1.59-5.09-2.56-7.32-.48-1.12-1.41-2.12-2.34-2.94-1.74-1.52-3.63-2.88-5.47-4.28-.41-.31-.9-.5-1.72-.95,0,1.14,0,1.91,0,2.68,0,5.51-.08,11.03.05,16.54.05,2.17-.4,3.47-2.73,4.23-3.65,1.18-6.42,3.79-7.77,7.35-1.19,3.13-2.69,5.84-5.41,7.84-.37.27-.62.73-.9,1.11-2.33,3.21-2.6,6.79-1.96,10.6,2.52-4.34,6.49-6.65,10.98-8.11Z"/>
  </g>
</svg>